<svg width="800px" height="800px" viewBox="0 0 24 24" fill="none" xmlns="http://www.w3.org/2000/svg">
    <path d="M4 12V8.5C4 7.42533 4 6.888 4.21799 6.46967C4.40973 6.10398 4.70398 5.80973 5.06967 5.61799C5.488 5.4 6.02533 5.4 7.1 5.4H16.9C17.9747 5.4 18.512 5.4 18.9303 5.61799C19.296 5.80973 19.5903 6.10398 19.782 6.46967C20 6.888 20 7.42533 20 8.5V12" stroke="#ffffff" stroke-width="1.5" stroke-linecap="round"/>
    <path d="M4.64398 18.5714C4.24838 18.4286 4 18.0124 4 17.5455V14.5C4 13.1193 5.11929 12 6.5 12H17.5C18.8807 12 20 13.1193 20 14.5V17.5455C20 18.0124 19.7516 18.4286 19.356 18.5714C17.4042 19.2857 14.4623 20 12 20C9.53772 20 6.59578 19.2857 4.64398 18.5714Z" stroke="#ffffff" stroke-width="1.5"/>
    <path d="M15 12V10.5M12 12V9M9 12V10.5" stroke="#ffffff" stroke-width="1.5" stroke-linecap="round"/>
    <circle cx="7.5" cy="16" r="0.5" fill="#ffffff"/>
    <circle cx="10.5" cy="16" r="0.5" fill="#ffffff"/>
</svg>